HIERARCHY
ROOT Hips
{
	OFFSET	0.00	0.00	0.00
	CHANNELS 6 Xposition Yposition Zposition Zrotation Xrotation Yrotation
	JOINT LeftUpLeg
	{
		OFFSET	 0.126116	-0.065224	 0.014019
		CHANNELS 3 Zrotation Xrotation Yrotation
		JOINT LeftLeg
		{
			OFFSET	 0.000000	 0.569914	 0.000000
			CHANNELS 3 Zrotation Xrotation Yrotation
			JOINT LeftFoot
			{
				OFFSET	 0.000000	 0.544423	 0.000000
				CHANNELS 3 Zrotation Xrotation Yrotation
				JOINT LeftToeBase
				{
					OFFSET	 0.000000	 0.207117	 0.000000
					CHANNELS 3 Zrotation Xrotation Yrotation
					End Site
					{
						OFFSET	 0.000000	 0.207117	 0.000000
					}
				}
			}
		}
	}
	JOINT RightUpLeg
	{
		OFFSET	-0.124023	-0.065224	 0.008373
		CHANNELS 3 Zrotation Xrotation Yrotation
		JOINT RightLeg
		{
			OFFSET	 0.000000	 0.570047	 0.000000
			CHANNELS 3 Zrotation Xrotation Yrotation
			JOINT RightFoot
			{
				OFFSET	 0.000000	 0.544354	 0.000000
				CHANNELS 3 Zrotation Xrotation Yrotation
				JOINT RightToeBase
				{
					OFFSET	 0.000000	 0.207540	 0.000000
					CHANNELS 3 Zrotation Xrotation Yrotation
					End Site
					{
						OFFSET	 0.000000	 0.207540	 0.000000
					}
				}
			}
		}
	}
	JOINT Spine
	{
		OFFSET	 0.000184	 0.117403	 0.007763
		CHANNELS 3 Zrotation Xrotation Yrotation
		JOINT Spine1
		{
			OFFSET	 0.000000	 0.137269	 0.000000
			CHANNELS 3 Zrotation Xrotation Yrotation
			JOINT Spine2
			{
				OFFSET	 0.000000	 0.156879	 0.000000
				CHANNELS 3 Zrotation Xrotation Yrotation
				JOINT LeftShoulder
				{
					OFFSET	 0.080501	 0.160143	 0.002496
					CHANNELS 3 Zrotation Xrotation Yrotation
					JOINT LeftArm
					{
						OFFSET	 0.000000	 0.164363	 0.000000
						CHANNELS 3 Zrotation Xrotation Yrotation
						JOINT LeftForeArm
						{
							OFFSET	 0.000000	 0.364576	 0.000000
							CHANNELS 3 Zrotation Xrotation Yrotation
							JOINT LeftHand
							{
								OFFSET	 0.000000	 0.360812	 0.000000
								CHANNELS 3 Zrotation Xrotation Yrotation
								JOINT LeftHandIndex1
								{
									OFFSET	 0.000000	 0.086006	 0.000000
									CHANNELS 3 Zrotation Xrotation Yrotation
									JOINT LeftHandIndex2
									{
										OFFSET	 0.000000	 0.047237	 0.000000
										CHANNELS 3 Zrotation Xrotation Yrotation
										JOINT LeftHandIndex3
										{
											OFFSET	-0.004284	 0.038165	 0.000551
											CHANNELS 3 Zrotation Xrotation Yrotation
											End Site
											{
												OFFSET	-0.004284	 0.038165	 0.000551
											}
										}
									}
								}
							}
						}
					}
				}
				JOINT Neck
				{
					OFFSET	 0.000000	 0.176489	 0.000000
					CHANNELS 3 Zrotation Xrotation Yrotation
					JOINT Head
					{
						OFFSET	 0.000000	 0.077941	 0.001747
						CHANNELS 3 Zrotation Xrotation Yrotation
						End Site
						{
							OFFSET	 0.000000	 0.077941	 0.001747
						}
					}
				}
				JOINT RightShoulder
				{
					OFFSET	-0.080363	 0.159706	-0.000306
					CHANNELS 3 Zrotation Xrotation Yrotation
					JOINT RightArm
					{
						OFFSET	 0.000000	 0.164196	 0.000000
						CHANNELS 3 Zrotation Xrotation Yrotation
						JOINT RightForeArm
						{
							OFFSET	 0.000000	 0.365611	 0.000000
							CHANNELS 3 Zrotation Xrotation Yrotation
							JOINT RightHand
							{
								OFFSET	 0.000000	 0.360648	 0.000000
								CHANNELS 3 Zrotation Xrotation Yrotation
								JOINT RightHandIndex1
								{
									OFFSET	 0.000000	 0.069977	 0.000000
									CHANNELS 3 Zrotation Xrotation Yrotation
									JOINT RightHandIndex2
									{
										OFFSET	 0.000000	 0.052305	 0.000000
										CHANNELS 3 Zrotation Xrotation Yrotation
										JOINT RightHandIndex3
										{
											OFFSET	 0.009002	 0.042196	 0.000782
											CHANNELS 3 Zrotation Xrotation Yrotation
											End Site
											{
												OFFSET	 0.009002	 0.042196	 0.000782
											}
										}
									}
								}
							}
						}
					}
				}
			}
		}
	}
}
MOTION
Frames:    7
Frame Time: 0.03333334
 0.002079	 1.271131	 0.063427	-0.282839	-0.012329	-179.994900	-177.059200	 0.945043	-11.444200	 2.135995	-9.978169	-0.070965	-5.347890	 69.714290	 4.714547	 1.292262	 28.425850	-2.713146	 176.509200	 2.044518	 11.426590	-2.449450	-11.743240	 0.014307	 5.545096	 70.502900	-4.838499	-1.288183	 28.361890	 2.710176	-0.084404	 2.823319	 6.736813	-1.551308	 3.379784	 3.499111	 1.441408	-4.262721	-10.167650	-101.478000	 1.740668	 90.353390	 48.885330	 53.309290	-39.597750	 2.030612	 4.233619	 1.395251	-13.357070	 15.961640	 20.036750	-6.580301	 5.266122	 0.000000	 0.000000	 0.000000	 0.000000	 0.000000	 0.000000	 0.000000	 0.089846	-3.783161	 0.005928	 0.022598	 1.030193	-2.513134	 101.796200	-0.213310	-89.955440	-5.717470	 63.101730	-2.977503	-7.029498	 10.628800	 1.920731	-11.578660	-3.845263	 24.705150	 15.208500	 5.323790	 0.000000	 0.000000	 0.000000	 0.000000	 0.000000	 0.000000	 0.000000
 0.002114	 1.271141	 0.063571	-0.261377	-0.093033	-179.995800	-176.920000	 1.076454	-12.756770	 2.153221	-10.056970	-0.067968	-5.326768	 69.666370	 4.693190	 1.292262	 28.425850	-2.713146	 176.394300	 2.152204	 12.741240	-2.456413	-11.775670	 0.012888	 5.510798	 70.437390	-4.814522	-1.288183	 28.361890	 2.710176	-0.087878	 2.742132	 7.258195	-1.548710	 3.367647	 3.499648	 1.440517	-4.257015	-10.167570	-101.478000	 1.740673	 90.353390	 48.431710	 53.357900	-39.211010	 2.139755	 4.212935	 1.945802	-13.108970	 16.094750	 20.062250	-6.580301	 5.266122	 0.000000	 0.000000	 0.000000	 0.000000	 0.000000	 0.000000	 0.000000	 0.089846	-3.783161	 0.005928	 0.022598	 1.030193	-2.513134	 101.796200	-0.213324	-89.955430	-10.099180	 66.077800	 0.985016	-2.916563	 4.272151	 0.798969	-13.858450	-0.522530	 25.248080	 15.208500	 5.323790	 0.000000	 0.000000	 0.000000	 0.000000	 0.000000	 0.000000	 0.000000
 0.002151	 1.271150	 0.063708	-0.242892	-0.170602	-179.996200	-176.783100	 1.197082	-14.060020	 2.168387	-10.126310	-0.065311	-5.303352	 69.614690	 4.672898	 1.292262	 28.425850	-2.713146	 176.276900	 2.253922	 14.046330	-2.463701	-11.809610	 0.011394	 5.473166	 70.374140	-4.789018	-1.288183	 28.361890	 2.710176	-0.127140	 2.662390	 8.516535	-1.550358	 3.357298	 3.500094	 1.441571	-4.252222	-10.167500	-101.478000	 1.740664	 90.353380	 47.994590	 53.405980	-38.836680	 2.418933	 4.195689	 3.273514	-12.861160	 16.192020	 20.083940	-6.580301	 5.266122	 0.000000	 0.000000	 0.000000	 0.000000	 0.000000	 0.000000	 0.000000	 0.089846	-3.783161	 0.005928	 0.022598	 1.030192	-2.513134	 101.796200	-0.213330	-89.955440	-9.637149	 65.833650	 0.565381	-3.179442	 4.222989	-0.581596	-14.457250	-0.426172	 24.788910	 15.208500	 5.323790	 0.000000	 0.000000	 0.000000	 0.000000	 0.000000	 0.000000	 0.000000
 0.002192	 1.271160	 0.063843	-0.227091	-0.246479	-179.996700	-176.646600	 1.309089	-15.375130	 2.181840	-10.187790	-0.062931	-5.275377	 69.558950	 4.651138	 1.292262	 28.425850	-2.713146	 176.155000	 2.351792	 15.363040	-2.471531	-11.846060	 0.009789	 5.433746	 70.312340	-4.763859	-1.288183	 28.361890	 2.710176	-0.199754	 2.581620	 10.529430	-1.556360	 3.347438	 3.500625	 1.444637	-4.247830	-10.167410	-101.478000	 1.740669	 90.353390	 47.566180	 53.454960	-38.470580	 2.873354	 4.184085	 5.397537	-12.610970	 16.251710	 20.103960	-6.580301	 5.266122	 0.000000	 0.000000	 0.000000	 0.000000	 0.000000	 0.000000	 0.000000	 0.089846	-3.783161	 0.005928	 0.022598	 1.030193	-2.513134	 101.796200	-0.213316	-89.955450	-8.995536	 65.546360	-0.014009	-3.612794	 4.164567	-2.789996	-15.376290	-0.396900	 24.022230	 15.208500	 5.323790	 0.000000	 0.000000	 0.000000	 0.000000	 0.000000	 0.000000	 0.000000
 0.002235	 1.271170	 0.063972	-0.214235	-0.318422	-179.997100	-176.514800	 1.409459	-16.661160	 2.193238	-10.239870	-0.060916	-5.244434	 69.500950	 4.629270	 1.292262	 28.425850	-2.713146	 176.032900	 2.442736	 16.650450	-2.479539	-11.883340	 0.008151	 5.393011	 70.253560	-4.739005	-1.288183	 28.361890	 2.710176	-0.299081	 2.499266	 13.203480	-1.566292	 3.339126	 3.501257	 1.449501	-4.244196	-10.167320	-101.478000	 1.740676	 90.353380	 47.165810	 53.505780	-38.130770	 3.481229	 4.175433	 8.221890	-12.367110	 16.270980	 20.123510	-6.580301	 5.266122	 0.000000	 0.000000	 0.000000	 0.000000	 0.000000	 0.000000	 0.000000	 0.089846	-3.783161	 0.005928	 0.022598	 1.030193	-2.513134	 101.796200	-0.213314	-89.955450	-8.144911	 65.208510	-0.772634	-4.196234	 4.099704	-5.727483	-16.604160	-0.421564	 22.977480	 15.208500	 5.323790	 0.000000	 0.000000	 0.000000	 0.000000	 0.000000	 0.000000	 0.000000
 0.002331	 1.271231	 0.064270	-0.185974	-0.487193	 179.999800	-176.196700	 1.608680	-19.803170	 2.209485	-10.314060	-0.058014	-5.142167	 69.335750	 4.563261	 1.292262	 28.425850	-2.713146	 175.731200	 2.627007	 19.795560	-2.491571	-11.939310	 0.005664	 5.283065	 70.095180	-4.679641	-1.288183	 28.361890	 2.710176	-0.359314	 2.320467	 15.843190	-1.600187	 3.320063	 3.504382	 1.465734	-4.236350	-10.167080	-101.478000	 1.740680	 90.353390	 46.157870	 53.598990	-37.268940	 4.068218	 4.137848	 11.016740	-11.807490	 16.483520	 20.175250	-6.580301	 5.266122	 0.000000	 0.000000	 0.000000	 0.000000	 0.000000	 0.000000	 0.000000	 0.089846	-3.783161	 0.005928	 0.022598	 1.030193	-2.513134	 101.796200	-0.213319	-89.955440	-6.998800	 64.611240	-1.766873	-4.744519	 3.994522	-8.637695	-17.985880	-0.151541	 22.010080	 15.208500	 5.323790	 0.000000	 0.000000	 0.000000	 0.000000	 0.000000	 0.000000	 0.000000
 0.002370	 1.271298	 0.064424	-0.170474	-0.576444	 179.996400	-176.027000	 1.688556	-21.507720	 2.210044	-10.316610	-0.057920	-5.067532	 69.229180	 4.517265	 1.292262	 28.425850	-2.713146	 175.569600	 2.700607	 21.501630	-2.490943	-11.936400	 0.005793	 5.215573	 69.993840	-4.647550	-1.288183	 28.361890	 2.710176	-0.238987	 2.246128	 13.516260	-1.621529	 3.310069	 3.507142	 1.475912	-4.232189	-10.166940	-101.478000	 1.740666	 90.353380	 45.564820	 53.618500	-36.757320	 3.515364	 4.098815	 8.555189	-11.530880	 16.776970	 20.210020	-6.580301	 5.266122	 0.000000	 0.000000	 0.000000	 0.000000	 0.000000	 0.000000	 0.000000	 0.089846	-3.783161	 0.005928	 0.022598	 1.030193	-2.513134	 101.796200	-0.213306	-89.955460	-7.424672	 64.563970	-1.383568	-4.193668	 3.985489	-6.077699	-17.063240	 0.294232	 23.043930	 15.208500	 5.323790	 0.000000	 0.000000	 0.000000	 0.000000	 0.000000	 0.000000	 0.000000
